<?xml version="1.0" encoding="UTF-8"?>
<!DOCTYPE svg PUBLIC "-//W3C//DTD SVG 1.1//EN" "http://www.w3.org/Graphics/SVG/1.1/DTD/svg11.dtd">
<svg xmlns="http://www.w3.org/2000/svg" width="100%" height="100%">
    <g transform="translate(30, 250)">
        <!-- x and y axes -->
        <line x1="0" y1="0" x2="185" y2="0" stroke="black" stroke-width="2" stroke-linecap="square"/>
        <line x1="0" y1="0" x2="0" y2="-210" stroke="black" stroke-width="2" stroke-linecap="square"/>
        <!-- horizontal ticks on Y axis -->
        <line x1="-3" x2="3" y1="-20" y2="-20" stroke="black" stroke-width="1"/>
        <line x1="-3" x2="3" y1="-40" y2="-40" stroke="black" stroke-width="1"/>
        <line x1="-3" x2="3" y1="-60" y2="-60" stroke="black" stroke-width="1"/>
        <line x1="-3" x2="3" y1="-80" y2="-80" stroke="black" stroke-width="1"/>
        <line x1="-3" x2="3" y1="-100" y2="-100" stroke="black" stroke-width="1"/>
        <line x1="-3" x2="3" y1="-120" y2="-120" stroke="black" stroke-width="1"/>
        <line x1="-3" x2="3" y1="-140" y2="-140" stroke="black" stroke-width="1"/>
        <line x1="-3" x2="3" y1="-160" y2="-160" stroke="black" stroke-width="1"/>
        <line x1="-3" x2="3" y1="-180" y2="-180" stroke="black" stroke-width="1"/>
        <line x1="-3" x2="3" y1="-200" y2="-200" stroke="black" stroke-width="1"/>
        <!-- labels for Y axis -->
        <text x="-8" y="-15" text-anchor="end">1</text>
        <text x="-8" y="-35" text-anchor="end">2</text>
        <text x="-8" y="-55" text-anchor="end">3</text>
        <text x="-8" y="-75" text-anchor="end">4</text>
        <text x="-8" y="-95" text-anchor="end">5</text>
        <text x="-8" y="-115" text-anchor="end">6</text>
        <text x="-8" y="-135" text-anchor="end">7</text>
        <text x="-8" y="-155" text-anchor="end">8</text>
        <text x="-8" y="-175" text-anchor="end">9</text>
        <text x="-8" y="-195" text-anchor="end">10</text>
        <!-- rectangular data bars, with name labels -->
        <rect x="15" y="-108.6" width="70" height="108.6" fill="orange" stroke="black" stroke-width="1"/>
        <text x="50" y="15" text-anchor="middle">German</text>
        <rect x="100" y="-85.7" width="70" height="85.7" fill="orange" stroke="black" stroke-width="1"/>
        <text x="135" y="15" text-anchor="middle">American</text>
        <rect x="100" y="-49.2" width="70" height="49.2" fill="yellow" stroke="black" stroke-width="1"/>
        <rect x="100" y="-25.3" width="70" height="25.3" fill="aqua" stroke="black" stroke-width="1"/>
      <!-- key to colors -->
        <text x="200" y="-19" text-anchor="start"> ambiguous = yellow </text>
        <text x="200" y="-34" text-anchor="start"> negative = aqua </text>
        <text x="200" y="-49" text-anchor="start"> positive = orange </text>
        <text x="200" y="-64" text-anchor="start"> key:</text>
        <!-- title -->
        <text x="55" y="-225" text-anchor="start"> Homeland</text>    
    </g>
</svg>